<svg width="1431" height="1430" xmlns="http://www.w3.org/2000/svg" xmlns:xlink="http://www.w3.org/1999/xlink" xml:space="preserve" overflow="hidden"><defs><clipPath id="clip0"><rect x="545" y="259" width="1431" height="1430"/></clipPath></defs><g clip-path="url(#clip0)" transform="translate(-545 -259)"><path d="M591 974C591 604.521 890.745 305 1260.5 305 1630.25 305 1930 604.521 1930 974 1930 1343.48 1630.25 1643 1260.5 1643 890.745 1643 591 1343.48 591 974Z" stroke="#1F4E79" stroke-width="91.6667" stroke-miterlimit="8" fill="#F2F2F2" fill-rule="evenodd"/><path d="M0 0 0.000360892 524.792" stroke="#C55A11" stroke-width="68.75" stroke-linecap="round" stroke-miterlimit="8" fill="none" fill-rule="evenodd" transform="matrix(1 0 0 -1 1260.5 974.292)"/><path d="M0 0 201.216 236.042" stroke="#9DC3E6" stroke-width="82.5" stroke-linecap="round" stroke-miterlimit="8" fill="none" fill-rule="evenodd" transform="matrix(1 0 0 -1 1059.5 1210.54)"/><path d="M1153.5 974.5C1153.5 914.853 1201.63 866.5 1261 866.5 1320.37 866.5 1368.5 914.853 1368.5 974.5 1368.5 1034.15 1320.37 1082.5 1261 1082.5 1201.63 1082.5 1153.5 1034.15 1153.5 974.5Z" stroke="#BF9000" stroke-width="4.58333" stroke-miterlimit="8" fill="#FFD966" fill-rule="evenodd"/></g></svg>